<mxfile host="app.diagrams.net" agent="Mozilla/5.0 (Windows NT 10.0; Win64; x64) AppleWebKit/537.36 (KHTML, like Gecko) Chrome/129.0.0.0 Safari/537.36" version="24.7.17">
  <diagram name="Страница — 1" id="pETxjT7mwpnIu_nuPi2U">
    <mxGraphModel dx="1688" dy="1450" grid="1" gridSize="10" guides="1" tooltips="1" connect="1" arrows="1" fold="1" page="1" pageScale="1" pageWidth="827" pageHeight="1169" math="0" shadow="0">
      <root>
        <mxCell id="0" />
        <mxCell id="1" parent="0" />
        <mxCell id="14c2O7PuD31gTfwQ0sOX-1" value="&lt;font style=&quot;font-size: 28px;&quot;&gt;Table&lt;/font&gt;" style="rounded=0;whiteSpace=wrap;html=1;" vertex="1" parent="1">
          <mxGeometry x="80" y="80" width="1520" height="790" as="geometry" />
        </mxCell>
        <mxCell id="14c2O7PuD31gTfwQ0sOX-3" value="" style="rounded=0;whiteSpace=wrap;html=1;" vertex="1" parent="1">
          <mxGeometry x="80" y="80" width="1520" height="110" as="geometry" />
        </mxCell>
        <mxCell id="14c2O7PuD31gTfwQ0sOX-4" value="название" style="rounded=0;whiteSpace=wrap;html=1;fontSize=28;" vertex="1" parent="1">
          <mxGeometry x="80" y="105" width="290" height="60" as="geometry" />
        </mxCell>
        <mxCell id="14c2O7PuD31gTfwQ0sOX-5" value="" style="whiteSpace=wrap;html=1;aspect=fixed;" vertex="1" parent="1">
          <mxGeometry x="1410" y="110" width="50" height="50" as="geometry" />
        </mxCell>
        <mxCell id="14c2O7PuD31gTfwQ0sOX-6" value="" style="whiteSpace=wrap;html=1;aspect=fixed;" vertex="1" parent="1">
          <mxGeometry x="1480" y="110" width="50" height="50" as="geometry" />
        </mxCell>
        <mxCell id="14c2O7PuD31gTfwQ0sOX-7" value="" style="rounded=0;whiteSpace=wrap;html=1;" vertex="1" parent="1">
          <mxGeometry x="80" y="190" width="1520" height="80" as="geometry" />
        </mxCell>
        <mxCell id="14c2O7PuD31gTfwQ0sOX-11" value="" style="edgeStyle=orthogonalEdgeStyle;rounded=0;orthogonalLoop=1;jettySize=auto;html=1;" edge="1" parent="1" source="14c2O7PuD31gTfwQ0sOX-8" target="14c2O7PuD31gTfwQ0sOX-10">
          <mxGeometry relative="1" as="geometry" />
        </mxCell>
        <mxCell id="14c2O7PuD31gTfwQ0sOX-8" value="" style="whiteSpace=wrap;html=1;aspect=fixed;" vertex="1" parent="1">
          <mxGeometry x="120" y="205" width="50" height="50" as="geometry" />
        </mxCell>
        <mxCell id="14c2O7PuD31gTfwQ0sOX-13" value="" style="edgeStyle=orthogonalEdgeStyle;rounded=0;orthogonalLoop=1;jettySize=auto;html=1;" edge="1" parent="1" source="14c2O7PuD31gTfwQ0sOX-10" target="14c2O7PuD31gTfwQ0sOX-12">
          <mxGeometry relative="1" as="geometry" />
        </mxCell>
        <mxCell id="14c2O7PuD31gTfwQ0sOX-10" value="" style="whiteSpace=wrap;html=1;aspect=fixed;" vertex="1" parent="1">
          <mxGeometry x="250" y="205" width="50" height="50" as="geometry" />
        </mxCell>
        <mxCell id="14c2O7PuD31gTfwQ0sOX-15" value="" style="edgeStyle=orthogonalEdgeStyle;rounded=0;orthogonalLoop=1;jettySize=auto;html=1;" edge="1" parent="1" source="14c2O7PuD31gTfwQ0sOX-12" target="14c2O7PuD31gTfwQ0sOX-14">
          <mxGeometry relative="1" as="geometry" />
        </mxCell>
        <mxCell id="14c2O7PuD31gTfwQ0sOX-12" value="" style="whiteSpace=wrap;html=1;aspect=fixed;" vertex="1" parent="1">
          <mxGeometry x="380" y="205" width="50" height="50" as="geometry" />
        </mxCell>
        <mxCell id="14c2O7PuD31gTfwQ0sOX-17" value="" style="edgeStyle=orthogonalEdgeStyle;rounded=0;orthogonalLoop=1;jettySize=auto;html=1;" edge="1" parent="1" source="14c2O7PuD31gTfwQ0sOX-14" target="14c2O7PuD31gTfwQ0sOX-16">
          <mxGeometry relative="1" as="geometry" />
        </mxCell>
        <mxCell id="14c2O7PuD31gTfwQ0sOX-14" value="" style="whiteSpace=wrap;html=1;aspect=fixed;" vertex="1" parent="1">
          <mxGeometry x="510" y="205" width="50" height="50" as="geometry" />
        </mxCell>
        <mxCell id="14c2O7PuD31gTfwQ0sOX-19" value="" style="edgeStyle=orthogonalEdgeStyle;rounded=0;orthogonalLoop=1;jettySize=auto;html=1;" edge="1" parent="1" source="14c2O7PuD31gTfwQ0sOX-16" target="14c2O7PuD31gTfwQ0sOX-18">
          <mxGeometry relative="1" as="geometry" />
        </mxCell>
        <mxCell id="14c2O7PuD31gTfwQ0sOX-16" value="" style="whiteSpace=wrap;html=1;aspect=fixed;" vertex="1" parent="1">
          <mxGeometry x="640" y="205" width="50" height="50" as="geometry" />
        </mxCell>
        <mxCell id="14c2O7PuD31gTfwQ0sOX-18" value="" style="whiteSpace=wrap;html=1;aspect=fixed;" vertex="1" parent="1">
          <mxGeometry x="770" y="205" width="50" height="50" as="geometry" />
        </mxCell>
        <mxCell id="14c2O7PuD31gTfwQ0sOX-20" value="" style="rounded=0;whiteSpace=wrap;html=1;" vertex="1" parent="1">
          <mxGeometry x="80" y="270" width="1520" height="60" as="geometry" />
        </mxCell>
        <mxCell id="14c2O7PuD31gTfwQ0sOX-21" value="&lt;font style=&quot;font-size: 28px;&quot;&gt;fx&lt;/font&gt;" style="whiteSpace=wrap;html=1;aspect=fixed;" vertex="1" parent="1">
          <mxGeometry x="80" y="270" width="60" height="60" as="geometry" />
        </mxCell>
        <mxCell id="14c2O7PuD31gTfwQ0sOX-22" value="" style="rounded=0;whiteSpace=wrap;html=1;" vertex="1" parent="1">
          <mxGeometry x="80" y="930" width="1520" height="630" as="geometry" />
        </mxCell>
        <mxCell id="14c2O7PuD31gTfwQ0sOX-25" value="&lt;span style=&quot;font-size: 24px;&quot;&gt;Dashboard&lt;/span&gt;" style="text;html=1;align=center;verticalAlign=middle;resizable=0;points=[];autosize=1;strokeColor=none;fillColor=none;" vertex="1" parent="1">
          <mxGeometry x="80" y="890" width="140" height="40" as="geometry" />
        </mxCell>
        <mxCell id="14c2O7PuD31gTfwQ0sOX-26" value="Excel" style="text;html=1;align=center;verticalAlign=middle;resizable=0;points=[];autosize=1;strokeColor=none;fillColor=none;fontSize=24;" vertex="1" parent="1">
          <mxGeometry x="80" y="40" width="80" height="40" as="geometry" />
        </mxCell>
        <mxCell id="14c2O7PuD31gTfwQ0sOX-27" value="Excel Dashboard" style="rounded=0;whiteSpace=wrap;html=1;fontSize=28;" vertex="1" parent="1">
          <mxGeometry x="80" y="930" width="1520" height="80" as="geometry" />
        </mxCell>
        <mxCell id="14c2O7PuD31gTfwQ0sOX-28" value="" style="whiteSpace=wrap;html=1;aspect=fixed;" vertex="1" parent="1">
          <mxGeometry x="80" y="1010" width="170" height="170" as="geometry" />
        </mxCell>
      </root>
    </mxGraphModel>
  </diagram>
</mxfile>
